HIERARCHY
ROOT Hips
{
	OFFSET 0.000000 0.000000 0.000000
	CHANNELS 6 Xposition Yposition Zposition Xrotation Yrotation Zrotation
	JOINT LeftUpLeg_virtual
	{
		OFFSET 0.000000 0.000000 0.000000
		CHANNELS 3 Xrotation Yrotation Zrotation
		JOINT LeftUpLeg
		{
			OFFSET 13.026900 -6.336304 -1.092800
			CHANNELS 3 Xrotation Yrotation Zrotation
			JOINT LeftLeg
			{
				OFFSET 0.524474 -46.096886 9.782700
				CHANNELS 3 Xrotation Yrotation Zrotation
				JOINT LeftFoot
				{
					OFFSET -0.524474 -53.427422 -12.948200
					CHANNELS 3 Xrotation Yrotation Zrotation
					JOINT LeftToeBase
					{
						OFFSET 0.192200 -14.009700 16.364100
						CHANNELS 3 Xrotation Yrotation Zrotation
						JOINT LeftToe_End
						{
							OFFSET -1.784700 -0.561700 9.474800
							CHANNELS 3 Xrotation Yrotation Zrotation
							End Site
							{
								OFFSET 0 0 0
							}
						}
					}
				}
			}
		}
	}
	JOINT RightUpLeg_virtual
	{
		OFFSET 0.000000 0.000000 0.000000
		CHANNELS 3 Xrotation Yrotation Zrotation
		JOINT RightUpLeg
		{
			OFFSET -12.883000 -6.336304 -1.092800
			CHANNELS 3 Xrotation Yrotation Zrotation
			JOINT RightLeg
			{
				OFFSET -0.524587 -46.096825 9.782800
				CHANNELS 3 Xrotation Yrotation Zrotation
				JOINT RightFoot
				{
					OFFSET 0.524587 -53.427383 -12.948300
					CHANNELS 3 Xrotation Yrotation Zrotation
					JOINT RightToeBase
					{
						OFFSET -0.192200 -14.009700 16.364100
						CHANNELS 3 Xrotation Yrotation Zrotation
						JOINT RightToe_End
						{
							OFFSET 1.784700 -0.561700 9.474800
							CHANNELS 3 Xrotation Yrotation Zrotation
							End Site
							{
								OFFSET 0 0 0
							}
						}
					}
				}
			}
		}
	}
	JOINT Spine_virtual
	{
		OFFSET 0.000000 0.000000 0.000000
		CHANNELS 3 Xrotation Yrotation Zrotation
		JOINT Spine
		{
			OFFSET 0.072000 7.257294 -0.789700
			CHANNELS 3 Xrotation Yrotation Zrotation
			JOINT Spine1
			{
				OFFSET 0.000000 12.508769 -0.658067
				CHANNELS 3 Xrotation Yrotation Zrotation
				JOINT Spine1_split
				{
					OFFSET 0.000000 12.508769 -0.658067
					CHANNELS 3 Xrotation Yrotation Zrotation
					JOINT Spine2
					{
						OFFSET 0.000000 12.508769 -0.658067
						CHANNELS 3 Xrotation Yrotation Zrotation
						JOINT Neck_virtual
						{
							OFFSET 0.000000 0.000000 0.000000
							CHANNELS 3 Xrotation Yrotation Zrotation
							JOINT Neck
							{
								OFFSET 0.000000 14.033295 7.520400
								CHANNELS 3 Xrotation Yrotation Zrotation
								JOINT Head
								{
									OFFSET 0.000000 8.198502 5.703100
									CHANNELS 3 Xrotation Yrotation Zrotation
									JOINT HeadTop_End
									{
										OFFSET 0.000000 17.760803 13.332701
										CHANNELS 3 Xrotation Yrotation Zrotation
										End Site
										{
											OFFSET 0 0 0
										}
									}
								}
							}
						}
						JOINT LeftShoulder_virtual
						{
							OFFSET 0.000000 0.000000 0.000000
							CHANNELS 3 Xrotation Yrotation Zrotation
							JOINT LeftShoulder
							{
								OFFSET 6.292450 5.785301 -0.669000
								CHANNELS 3 Xrotation Yrotation Zrotation
								JOINT LeftShoulder_split
								{
									OFFSET 6.292450 5.785301 -0.669000
									CHANNELS 3 Xrotation Yrotation Zrotation
									JOINT LeftArm
									{
										OFFSET 13.907140 -6.093903 1.965100
										CHANNELS 3 Xrotation Yrotation Zrotation
										JOINT LeftForeArm
										{
											OFFSET 34.140198 0.000000 0.000000
											CHANNELS 3 Xrotation Yrotation Zrotation
											JOINT LeftHand
											{
												OFFSET 40.960209 0.000000 0.000000
												CHANNELS 3 Xrotation Yrotation Zrotation
												End Site
												{
													OFFSET 0 0 0
												}
											}
										}
									}
								}
							}
						}
						JOINT RightShoulder_virtual
						{
							OFFSET 0.000000 0.000000 0.000000
							CHANNELS 3 Xrotation Yrotation Zrotation
							JOINT RightShoulder
							{
								OFFSET -6.292450 5.785301 -0.669000
								CHANNELS 3 Xrotation Yrotation Zrotation
								JOINT RightShoulder_split
								{
									OFFSET -6.292450 5.785301 -0.669000
									CHANNELS 3 Xrotation Yrotation Zrotation
									JOINT RightArm
									{
										OFFSET -13.907140 -6.093903 1.965100
										CHANNELS 3 Xrotation Yrotation Zrotation
										JOINT RightForeArm
										{
											OFFSET -34.140198 0.000000 0.000000
											CHANNELS 3 Xrotation Yrotation Zrotation
											JOINT RightHand
											{
												OFFSET -40.960209 0.000000 0.000000
												CHANNELS 3 Xrotation Yrotation Zrotation
												End Site
												{
													OFFSET 0 0 0
												}
											}
										}
									}
								}
							}
						}
					}
				}
			}
		}
	}
}
MOTION
Frames: 4
Frame Time: 0.03333333
3.962602 101.266853 -2.722816 0.000000 0.000000 0.000000 8.413591 -66.769348 9.418822 -35.460894 15.025496 23.689196 31.837670 -7.778184 2.598348 -3.759834 -3.837926 -14.506697 -0.946301 -0.189915 -0.427061 0.000000 0.000000 0.000000 6.448848 -66.351210 8.321184 -31.934454 -22.965563 -29.413701 32.734266 7.865788 -4.261522 -9.337990 0.089210 21.773810 2.050859 0.010671 -0.041743 0.000000 0.000000 0.000000 7.799253 -64.560266 8.655511 12.243190 -0.755584 -4.627136 7.279720 1.712238 -0.947840 0.500187 3.849519 -0.713136 0.000000 0.000000 0.000000 9.727561 1.779259 -2.081097 7.189600 5.032477 4.579429 -24.311141 52.848193 18.675955 0.000000 0.000000 0.000000 8.967642 1.120374 -1.041293 5.516409 -1.495101 -12.390046 -2.846357 -4.781539 2.610039 -33.850640 13.623396 -27.903068 6.828170 -54.041693 4.186976 0.000000 0.000000 0.000000 7.769305 1.682108 -0.591993 -7.961355 7.682988 14.933450 3.055541 0.659635 -1.627043 17.029224 -6.479211 33.144415 -19.755702 39.706256 20.103391 0.000000 0.000000 0.000000 
3.711875 101.563225 -2.232025 0.000000 0.000000 0.000000 7.968606 -66.666471 8.713741 -35.606606 14.787734 23.998628 32.359732 -7.558260 2.691133 -3.799177 -3.899285 -14.768717 -1.019541 -0.191707 -0.409601 0.000000 0.000000 0.000000 6.326356 -66.694646 7.932069 -31.027138 -22.494287 -28.796303 31.483122 8.002580 -4.206312 -8.715716 0.507801 22.352021 0.738779 -0.004784 -0.008097 0.000000 0.000000 0.000000 7.650005 -64.824226 8.230210 12.264037 -0.756530 -4.249541 7.293181 1.726604 -1.400901 0.030534 3.193551 -0.572653 0.000000 0.000000 0.000000 8.774518 1.804999 -2.274571 7.569944 5.038260 4.441871 -23.959528 54.053820 17.853906 0.000000 0.000000 0.000000 8.632738 1.155254 -1.516175 5.428207 -2.059717 -12.679064 -3.112342 -3.010038 2.177087 -32.933895 16.084933 -27.292328 7.503619 -51.759853 4.677876 0.000000 0.000000 0.000000 7.342523 1.856872 -0.790682 -9.189880 6.319530 15.028072 3.813190 -0.184878 -0.345039 14.934082 -5.529504 31.546964 -18.614383 39.079248 19.790135 0.000000 0.000000 0.000000 
3.368031 101.901886 -1.652821 0.000000 0.000000 0.000000 6.737095 -67.134448 7.156410 -35.552798 14.389825 24.538098 33.122804 -7.028940 2.706256 -3.905748 -3.747807 -14.929077 -1.176201 -0.179434 -0.353391 0.000000 0.000000 0.000000 5.603887 -67.498047 6.799547 -29.791240 -21.931063 -28.142850 29.892671 8.320980 -4.035520 -7.966636 1.073854 22.756411 -0.090426 -0.003716 0.086791 0.000000 0.000000 0.000000 6.844941 -65.269991 7.065045 11.989946 -0.762271 -3.774703 6.679741 1.428741 -1.514249 0.212856 2.768764 -0.261405 0.000000 0.000000 0.000000 7.429146 1.376125 -2.019960 7.622992 4.998992 3.630071 -21.721023 56.318649 14.481756 0.000000 0.000000 0.000000 7.553957 0.830447 -1.609228 4.956893 -3.375860 -14.279746 -3.920125 -1.925667 2.807251 -28.011798 20.169315 -26.674424 6.703288 -49.171334 4.171799 0.000000 0.000000 0.000000 6.401749 1.609347 -0.699737 -11.295780 3.811065 14.785242 4.476783 -1.006482 0.229291 13.182315 -9.979838 32.727125 -17.523941 41.103307 19.520788 0.000000 0.000000 0.000000 
2.974993 102.033089 -1.179314 0.000000 0.000000 0.000000 4.763967 -67.919428 4.893137 -35.421361 13.879064 25.161765 34.161676 -6.263919 2.675629 -4.155856 -3.454293 -14.930052 -1.287973 -0.155176 -0.298249 0.000000 0.000000 0.000000 4.085890 -68.316782 4.869047 -28.563675 -21.437100 -27.672095 28.619427 8.659018 -3.778427 -7.330536 1.552490 23.004123 -0.401039 0.013770 0.181616 0.000000 0.000000 0.000000 5.528684 -65.737197 5.336258 11.448239 -0.799398 -3.284888 5.571966 0.923185 -1.318781 0.322484 1.901539 0.211308 0.000000 0.000000 0.000000 5.927746 0.613790 -1.423881 7.249559 4.988673 2.366486 -17.024887 58.907472 8.537782 0.000000 0.000000 0.000000 6.052227 0.257216 -1.359484 4.180615 -4.974831 -16.797776 -4.455085 -1.596954 4.379405 -20.268496 24.561572 -26.480643 5.315178 -48.019290 3.396834 0.000000 0.000000 0.000000 5.166837 1.043862 -0.360617 -14.042520 0.830649 13.408290 4.179847 -0.901678 -0.109314 12.271056 -19.693568 36.852074 -16.936064 47.041685 19.378713 0.000000 0.000000 0.000000 
